<svg xmlns="http://www.w3.org/2000/svg" viewBox="0 0 500 500" fill="none">
  <defs>
    <radialGradient id="bg7" cx="50%" cy="50%" r="50%">
      <stop offset="0%" stop-color="#f0fdf4"/>
      <stop offset="100%" stop-color="#dcfce7"/>
    </radialGradient>
    <linearGradient id="actin2" x1="0" y1="0" x2="1" y2="0">
      <stop offset="0%" stop-color="#22c55e"/>
      <stop offset="50%" stop-color="#16a34a"/>
      <stop offset="100%" stop-color="#15803d"/>
    </linearGradient>
    <linearGradient id="lrod" x1="0" y1="0" x2="1" y2="1">
      <stop offset="0%" stop-color="#6366f1"/>
      <stop offset="100%" stop-color="#4f46e5"/>
    </linearGradient>
    <radialGradient id="glow" cx="50%" cy="50%" r="50%">
      <stop offset="0%" stop-color="#bbf7d0" stop-opacity="0.6"/>
      <stop offset="100%" stop-color="#bbf7d0" stop-opacity="0"/>
    </radialGradient>
  </defs>
  <circle cx="250" cy="250" r="230" fill="url(#bg7)" opacity="0.5"/>
  <circle cx="250" cy="250" r="160" fill="url(#glow)"/>
  <rect x="185" y="225" width="75" height="35" rx="7" fill="url(#lrod)"/>
  <ellipse cx="185" cy="242" rx="10" ry="17" fill="#4f46e5"/>
  <ellipse cx="260" cy="242" rx="10" ry="17" fill="#4f46e5"/>
  <circle cx="205" cy="236" r="2.5" fill="#c7d2fe" opacity="0.7"/>
  <circle cx="220" cy="242" r="3" fill="#c7d2fe" opacity="0.7"/>
  <circle cx="240" cy="238" r="2" fill="#c7d2fe" opacity="0.7"/>
  <path d="M260 242 Q310 230 350 210 Q380 195 400 170" stroke="url(#actin2)" stroke-width="3.5" fill="none" stroke-linecap="round"/>
  <path d="M260 242 Q310 240 350 225 Q380 215 400 195" stroke="url(#actin2)" stroke-width="3" fill="none" stroke-linecap="round"/>
  <path d="M260 242 Q310 250 350 240 Q380 235 400 220" stroke="url(#actin2)" stroke-width="3" fill="none" stroke-linecap="round"/>
  <path d="M260 242 Q315 260 355 255 Q385 250 405 240" stroke="url(#actin2)" stroke-width="2.5" fill="none" stroke-linecap="round"/>
  <path d="M260 242 Q305 270 340 270 Q365 270 390 260" stroke="url(#actin2)" stroke-width="2.5" fill="none" stroke-linecap="round"/>
  <path d="M265 242 Q315 215 355 195 Q380 180 400 155" stroke="url(#actin2)" stroke-width="2" fill="none" stroke-linecap="round" opacity="0.6"/>
  <path d="M265 242 Q320 205 360 185 Q390 170 410 145" stroke="url(#actin2)" stroke-width="1.5" fill="none" stroke-linecap="round" opacity="0.4"/>
  <circle cx="400" cy="170" r="2.5" fill="#16a34a" opacity="0.6"/>
  <circle cx="400" cy="195" r="2.5" fill="#16a34a" opacity="0.6"/>
  <circle cx="405" cy="240" r="2" fill="#16a34a" opacity="0.6"/>
  <circle cx="390" cy="260" r="2" fill="#16a34a" opacity="0.6"/>
  <circle cx="400" cy="155" r="2" fill="#16a34a" opacity="0.4"/>
  <text x="250" y="130" text-anchor="middle" font-family="system-ui,sans-serif" font-size="11" font-weight="700" fill="#16a34a">Actin Comet Tail (ActA/Arp2/3)</text>
  <text x="250" y="380" text-anchor="middle" font-family="system-ui,sans-serif" font-size="16" font-weight="700" fill="#065f46">Listeria monocytogenes</text>
  <text x="250" y="405" text-anchor="middle" font-family="system-ui,sans-serif" font-size="13" font-weight="500" fill="#64748b">Phagosomal escape · Actin-based motility</text>
</svg>