<svg xmlns="http://www.w3.org/2000/svg" viewBox="0 0 100 100" fill="none">
  <circle cx="50" cy="48" r="43" fill="#ffedd5" opacity="0.4"/>
  <path d="M18 36 Q14 48 20 58" stroke="#f97316" stroke-width="2.5" fill="none" stroke-dasharray="4 3"/>
  <path d="M78 32 Q84 42 80 54" stroke="#f97316" stroke-width="2.5" fill="none" stroke-dasharray="4 3"/>
  <path d="M30 70 Q24 68 26 62" stroke="#f97316" stroke-width="2" fill="none" stroke-dasharray="3 3"/>
  <path d="M74 64 Q78 66 76 72" stroke="#f97316" stroke-width="2" fill="none" stroke-dasharray="3 3"/>
  <rect x="32" y="36" width="28" height="22" rx="5" fill="#ef4444"/>
  <ellipse cx="32" cy="47" rx="5" ry="11" fill="#b91c1c"/>
  <ellipse cx="60" cy="47" rx="5" ry="11" fill="#b91c1c"/>
  <path d="M60 44 Q72 38 80 32 Q86 28 90 22" stroke="#f59e0b" stroke-width="3.5" fill="none" stroke-linecap="round"/>
  <path d="M60 48 Q74 44 82 40 Q88 36 92 30" stroke="#f59e0b" stroke-width="2.5" fill="none" stroke-linecap="round"/>
  <path d="M60 52 Q72 52 80 48 Q86 44 90 40" stroke="#f59e0b" stroke-width="2" fill="none" stroke-linecap="round"/>
</svg>
