<svg xmlns="http://www.w3.org/2000/svg" viewBox="0 0 500 500" fill="none">
  <defs>
    <radialGradient id="bg4" cx="50%" cy="50%" r="50%">
      <stop offset="0%" stop-color="#f5f3ff"/>
      <stop offset="100%" stop-color="#ede9fe"/>
    </radialGradient>
    <radialGradient id="vac2" cx="45%" cy="40%" r="55%">
      <stop offset="0%" stop-color="#f3e8ff"/>
      <stop offset="100%" stop-color="#e9d5ff"/>
    </radialGradient>
    <linearGradient id="mem3" x1="0" y1="0" x2="0" y2="1">
      <stop offset="0%" stop-color="#7c3aed"/>
      <stop offset="100%" stop-color="#6d28d9"/>
    </linearGradient>
    <linearGradient id="proton" x1="0" y1="0" x2="0" y2="1">
      <stop offset="0%" stop-color="#f59e0b"/>
      <stop offset="100%" stop-color="#d97706"/>
    </linearGradient>
    <radialGradient id="ph" cx="50%" cy="50%" r="50%">
      <stop offset="0%" stop-color="#fef08a"/>
      <stop offset="100%" stop-color="#eab308"/>
    </radialGradient>
  </defs>
  <circle cx="250" cy="250" r="230" fill="url(#bg4)" opacity="0.5"/>
  <circle cx="255" cy="245" r="125" fill="url(#vac2)" stroke="url(#mem3)" stroke-width="4"/>
  <rect x="230" y="220" width="55" height="30" rx="6" fill="#b91c1c"/>
  <circle cx="230" cy="235" rx="8" ry="15" fill="#dc2626"/>
  <circle cx="285" cy="235" rx="8" ry="15" fill="#dc2626"/>
  <circle cx="245" cy="228" r="2" fill="#fca5a5" opacity="0.6"/>
  <circle cx="260" cy="235" r="2.5" fill="#fca5a5" opacity="0.6"/>
  <circle cx="272" cy="230" r="2" fill="#fca5a5" opacity="0.6"/>
  <circle cx="200" cy="170" r="28" fill="#c4b5fd" opacity="0.5" stroke="#7c3aed" stroke-width="2.5"/>
  <text x="200" y="174" text-anchor="middle" font-family="system-ui,sans-serif" font-size="11" font-weight="700" fill="#5b21b6">Rab7</text>
  <circle cx="340" cy="210" r="30" fill="#c4b5fd" opacity="0.5" stroke="#7c3aed" stroke-width="2.5"/>
  <text x="340" y="214" text-anchor="middle" font-family="system-ui,sans-serif" font-size="10" font-weight="700" fill="#5b21b6">LAMP1</text>
  <circle cx="200" cy="320" r="25" fill="#c4b5fd" opacity="0.5" stroke="#7c3aed" stroke-width="2.5"/>
  <text x="200" y="324" text-anchor="middle" font-family="system-ui,sans-serif" font-size="10" font-weight="700" fill="#5b21b6">V-ATPase</text>
  <line x1="220" y1="190" x2="235" y2="215" stroke="#7c3aed" stroke-width="1.5" stroke-dasharray="4 3"/>
  <line x1="320" y1="230" x2="295" y2="235" stroke="#7c3aed" stroke-width="1.5" stroke-dasharray="4 3"/>
  <line x1="218" y1="300" x2="240" y2="260" stroke="#7c3aed" stroke-width="1.5" stroke-dasharray="4 3"/>
  <rect x="310" y="280" width="40" height="22" rx="4" fill="url(#proton)" opacity="0.7"/>
  <text x="330" y="295" text-anchor="middle" font-family="system-ui,sans-serif" font-size="9" font-weight="700" fill="#fff">H⁺</text>
  <rect x="280" y="310" width="40" height="22" rx="4" fill="url(#proton)" opacity="0.7"/>
  <text x="300" y="325" text-anchor="middle" font-family="system-ui,sans-serif" font-size="9" font-weight="700" fill="#fff">H⁺</text>
  <circle cx="255" cy="245" r="50" fill="url(#ph)" opacity="0.15"/>
  <text x="250" y="410" text-anchor="middle" font-family="system-ui,sans-serif" font-size="18" font-weight="600" fill="#64748b">Late Phagosome (Rab7⁺ LAMP1⁺)</text>
  <text x="250" y="435" text-anchor="middle" font-family="system-ui,sans-serif" font-size="14" font-weight="500" fill="#a16207">pH ~5.5 · V-ATPase active</text>
</svg>