<svg xmlns="http://www.w3.org/2000/svg" viewBox="0 0 500 500" fill="none">
  <defs>
    <radialGradient id="bg6" cx="50%" cy="50%" r="50%">
      <stop offset="0%" stop-color="#fffbeb"/>
      <stop offset="100%" stop-color="#fef3c7"/>
    </radialGradient>
    <linearGradient id="scv" x1="0" y1="0" x2="0" y2="1">
      <stop offset="0%" stop-color="#3b82f6"/>
      <stop offset="100%" stop-color="#1d4ed8"/>
    </linearGradient>
    <linearGradient id="rod" x1="0" y1="0" x2="1" y2="1">
      <stop offset="0%" stop-color="#ef4444"/>
      <stop offset="100%" stop-color="#b91c1c"/>
    </linearGradient>
    <linearGradient id="needle" x1="0" y1="0" x2="0" y2="1">
      <stop offset="0%" stop-color="#94a3b8"/>
      <stop offset="100%" stop-color="#64748b"/>
    </linearGradient>
  </defs>
  <circle cx="250" cy="250" r="230" fill="url(#bg6)" opacity="0.5"/>
  <circle cx="250" cy="250" r="155" fill="none" stroke="url(#scv)" stroke-width="3" stroke-dasharray="8 4"/>
  <text x="250" y="110" text-anchor="middle" font-family="system-ui,sans-serif" font-size="11" font-weight="700" fill="#1d4ed8">SCV Membrane</text>
  <rect x="190" y="215" width="90" height="40" rx="8" fill="url(#rod)"/>
  <ellipse cx="190" cy="235" rx="12" ry="20" fill="#dc2626"/>
  <ellipse cx="280" cy="235" rx="12" ry="20" fill="#dc2626"/>
  <circle cx="215" cy="228" r="3" fill="#fca5a5" opacity="0.7"/>
  <circle cx="235" cy="235" r="3.5" fill="#fca5a5" opacity="0.7"/>
  <circle cx="255" cy="230" r="2.5" fill="#fca5a5" opacity="0.7"/>
  <line x1="250" y1="215" x2="250" y2="170" stroke="url(#needle)" stroke-width="4" stroke-linecap="round"/>
  <rect x="244" y="155" width="12" height="20" rx="3" fill="#64748b"/>
  <circle cx="250" cy="155" r="6" fill="#94a3b8"/>
  <path d="M250 170 L230 155 M250 170 L270 155 M250 175 L225 165 M250 175 L275 165" stroke="#64748b" stroke-width="2" stroke-linecap="round"/>
  <circle cx="290" cy="175" r="10" fill="#fbbf24" opacity="0.8"/>
  <text x="290" y="179" text-anchor="middle" font-family="system-ui,sans-serif" font-size="6" font-weight="700" fill="#92400e">SopE</text>
  <circle cx="310" cy="190" r="10" fill="#fbbf24" opacity="0.8"/>
  <text x="310" y="194" text-anchor="middle" font-family="system-ui,sans-serif" font-size="6" font-weight="700" fill="#92400e">SipA</text>
  <circle cx="200" cy="180" r="10" fill="#fbbf24" opacity="0.8"/>
  <text x="200" y="184" text-anchor="middle" font-family="system-ui,sans-serif" font-size="6" font-weight="700" fill="#92400e">SifA</text>
  <line x1="260" y1="163" x2="290" y2="170" stroke="#fbbf24" stroke-width="1.5"/>
  <line x1="260" y1="163" x2="310" y2="183" stroke="#fbbf24" stroke-width="1.5"/>
  <line x1="240" y1="163" x2="210" y2="175" stroke="#fbbf24" stroke-width="1.5"/>
  <text x="250" y="340" text-anchor="middle" font-family="system-ui,sans-serif" font-size="16" font-weight="700" fill="#92400e">Salmonella enterica</text>
  <text x="250" y="365" text-anchor="middle" font-family="system-ui,sans-serif" font-size="13" font-weight="500" fill="#64748b">T3SS · SCV manipulation</text>
</svg>