<svg xmlns="http://www.w3.org/2000/svg" viewBox="0 0 500 500" fill="none">
  <defs>
    <radialGradient id="bg9" cx="50%" cy="50%" r="50%">
      <stop offset="0%" stop-color="#f5f3ff"/>
      <stop offset="100%" stop-color="#ede9fe"/>
    </radialGradient>
    <linearGradient id="lcv" x1="0" y1="0" x2="0" y2="1">
      <stop offset="0%" stop-color="#7c3aed"/>
      <stop offset="100%" stop-color="#6d28d9"/>
    </linearGradient>
    <linearGradient id="lrod2" x1="0" y1="0" x2="1" y2="1">
      <stop offset="0%" stop-color="#10b981"/>
      <stop offset="100%" stop-color="#059669"/>
    </linearGradient>
    <linearGradient id="er" x1="0" y1="0" x2="1" y2="1">
      <stop offset="0%" stop-color="#fbbf24"/>
      <stop offset="100%" stop-color="#d97706"/>
    </linearGradient>
  </defs>
  <circle cx="250" cy="250" r="230" fill="url(#bg9)" opacity="0.5"/>
  <circle cx="250" cy="240" r="140" fill="none" stroke="url(#lcv)" stroke-width="3" stroke-dasharray="6 4"/>
  <text x="250" y="115" text-anchor="middle" font-family="system-ui,sans-serif" font-size="11" font-weight="700" fill="#5b21b6">LCV</text>
  <rect x="205" y="220" width="75" height="35" rx="7" fill="url(#lrod2)"/>
  <ellipse cx="205" cy="237" rx="10" ry="17" fill="#059669"/>
  <ellipse cx="280" cy="237" rx="10" ry="17" fill="#059669"/>
  <circle cx="222" cy="230" r="2.5" fill="#a7f3d0" opacity="0.7"/>
  <circle cx="240" cy="236" r="3" fill="#a7f3d0" opacity="0.7"/>
  <circle cx="258" cy="232" r="2" fill="#a7f3d0" opacity="0.7"/>
  <ellipse cx="130" cy="210" rx="25" ry="15" fill="url(#er)" opacity="0.7"/>
  <text x="130" y="214" text-anchor="middle" font-family="system-ui,sans-serif" font-size="7" font-weight="700" fill="#92400e">ER</text>
  <ellipse cx="350" cy="180" rx="22" ry="13" fill="url(#er)" opacity="0.7"/>
  <text x="350" y="184" text-anchor="middle" font-family="system-ui,sans-serif" font-size="7" font-weight="700" fill="#92400e">ER</text>
  <ellipse cx="360" cy="290" rx="20" ry="12" fill="url(#er)" opacity="0.6"/>
  <text x="360" y="294" text-anchor="middle" font-family="system-ui,sans-serif" font-size="6" font-weight="700" fill="#92400e">ER</text>
  <ellipse cx="150" cy="310" rx="22" ry="14" fill="url(#er)" opacity="0.6"/>
  <text x="150" y="314" text-anchor="middle" font-family="system-ui,sans-serif" font-size="7" font-weight="700" fill="#92400e">ER</text>
  <ellipse cx="180" cy="170" rx="20" ry="12" fill="url(#er)" opacity="0.5"/>
  <text x="180" y="174" text-anchor="middle" font-family="system-ui,sans-serif" font-size="6" font-weight="700" fill="#92400e">ER</text>
  <line x1="155" y1="220" x2="205" y2="230" stroke="#7c3aed" stroke-width="1.5" stroke-dasharray="4 3"/>
  <line x1="328" y1="190" x2="280" y2="225" stroke="#7c3aed" stroke-width="1.5" stroke-dasharray="4 3"/>
  <line x1="340" y1="280" x2="290" y2="250" stroke="#7c3aed" stroke-width="1.5" stroke-dasharray="4 3"/>
  <line x1="172" y1="300" x2="220" y2="255" stroke="#7c3aed" stroke-width="1.5" stroke-dasharray="4 3"/>
  <line x1="200" y1="175" x2="225" y2="220" stroke="#7c3aed" stroke-width="1.5" stroke-dasharray="4 3"/>
  <text x="250" y="155" text-anchor="middle" font-family="system-ui,sans-serif" font-size="10" font-weight="600" fill="#5b21b6">Dot/Icm T4SS effectors</text>
  <circle cx="250" cy="185" r="12" fill="#c4b5fd" opacity="0.8"/>
  <text x="250" y="189" text-anchor="middle" font-family="system-ui,sans-serif" font-size="6" font-weight="700" fill="#5b21b6">DrrA</text>
  <circle cx="290" cy="200" r="10" fill="#c4b5fd" opacity="0.7"/>
  <text x="290" y="204" text-anchor="middle" font-family="system-ui,sans-serif" font-size="6" font-weight="700" fill="#5b21b6">AnkX</text>
  <line x1="250" y1="197" x2="250" y2="215" stroke="#7c3aed" stroke-width="1.5"/>
  <line x1="290" y1="210" x2="280" y2="220" stroke="#7c3aed" stroke-width="1.5"/>
  <text x="250" y="400" text-anchor="middle" font-family="system-ui,sans-serif" font-size="16" font-weight="700" fill="#4c1d95">Legionella pneumophila</text>
  <text x="250" y="425" text-anchor="middle" font-family="system-ui,sans-serif" font-size="13" font-weight="500" fill="#64748b">ER recruitment · Rab1 hijack</text>
</svg>