<svg xmlns="http://www.w3.org/2000/svg" viewBox="0 0 500 500" fill="none">
  <defs>
    <radialGradient id="bg8" cx="50%" cy="50%" r="50%">
      <stop offset="0%" stop-color="#fdf2f8"/>
      <stop offset="100%" stop-color="#fce7f3"/>
    </radialGradient>
    <linearGradient id="capsule" x1="0" y1="0" x2="1" y2="1">
      <stop offset="0%" stop-color="#f472b6"/>
      <stop offset="100%" stop-color="#db2777"/>
    </linearGradient>
    <linearGradient id="core" x1="0" y1="0" x2="1" y2="1">
      <stop offset="0%" stop-color="#ec4899"/>
      <stop offset="100%" stop-color="#be185d"/>
    </linearGradient>
    <linearGradient id="vatp" x1="0" y1="0" x2="0" y2="1">
      <stop offset="0%" stop-color="#fbbf24"/>
      <stop offset="100%" stop-color="#d97706"/>
    </linearGradient>
  </defs>
  <circle cx="250" cy="250" r="230" fill="url(#bg8)" opacity="0.5"/>
  <circle cx="250" cy="250" r="145" fill="none" stroke="#ec4899" stroke-width="2.5" stroke-dasharray="8 4"/>
  <text x="250" y="120" text-anchor="middle" font-family="system-ui,sans-serif" font-size="11" font-weight="700" fill="#be185d">Arrested Phagosome</text>
  <rect x="195" y="220" width="90" height="40" rx="10" fill="url(#capsule)"/>
  <rect x="205" y="228" width="70" height="24" rx="6" fill="url(#core)"/>
  <ellipse cx="195" cy="240" rx="12" ry="20" fill="#db2777"/>
  <ellipse cx="285" cy="240" rx="12" ry="20" fill="#db2777"/>
  <path d="M195 230 Q200 225 205 228" stroke="#fdf2f8" stroke-width="1.5" fill="none" opacity="0.5"/>
  <path d="M200 245 Q205 250 210 248" stroke="#fdf2f8" stroke-width="1.5" fill="none" opacity="0.5"/>
  <circle cx="225" cy="235" r="2.5" fill="#fdf2f8" opacity="0.6"/>
  <circle cx="245" cy="238" r="3" fill="#fdf2f8" opacity="0.6"/>
  <circle cx="265" cy="233" r="2" fill="#fdf2f8" opacity="0.6"/>
  <text x="250" y="218" text-anchor="middle" font-family="system-ui,sans-serif" font-size="7" font-weight="700" fill="#fdf2f8" opacity="0.8">Mycolic acid</text>
  <rect x="310" y="200" width="45" height="16" rx="3" fill="#a1a1aa" opacity="0.5"/>
  <text x="332" y="212" text-anchor="middle" font-family="system-ui,sans-serif" font-size="7" font-weight="700" fill="#52525b">V-ATPase</text>
  <line x1="310" y1="208" x2="290" y2="230" stroke="#a1a1aa" stroke-width="1.5" stroke-dasharray="3 3"/>
  <circle x="310" y="208" r="2" fill="#a1a1aa" opacity="0.5"/>
  <line x1="332" y1="216" x2="315" y2="240" stroke="#a1a1aa" stroke-width="1.5" stroke-dasharray="3 3"/>
  <text x="250" y="158" text-anchor="middle" font-family="system-ui,sans-serif" font-size="10" font-weight="600" fill="#be185d">✗ V-ATPase recruitment blocked</text>
  <circle cx="160" cy="280" r="18" fill="#fbcfe8" opacity="0.7" stroke="#db2777" stroke-width="2"/>
  <text x="160" y="284" text-anchor="middle" font-family="system-ui,sans-serif" font-size="7" font-weight="700" fill="#be185d">SapM</text>
  <line x1="175" y1="275" x2="195" y2="255" stroke="#db2777" stroke-width="1.5"/>
  <circle cx="330" cy="300" r="18" fill="#fbcfe8" opacity="0.7" stroke="#db2777" stroke-width="2"/>
  <text x="330" y="304" text-anchor="middle" font-family="system-ui,sans-serif" font-size="7" font-weight="700" fill="#be185d">LAM</text>
  <line x1="318" y1="290" x2="295" y2="260" stroke="#db2777" stroke-width="1.5"/>
  <text x="250" y="380" text-anchor="middle" font-family="system-ui,sans-serif" font-size="16" font-weight="700" fill="#831843">Mycobacterium tuberculosis</text>
  <text x="250" y="405" text-anchor="middle" font-family="system-ui,sans-serif" font-size="13" font-weight="500" fill="#64748b">Phagosome arrest · PI3P depletion</text>
</svg>