<svg xmlns="http://www.w3.org/2000/svg" viewBox="0 0 500 500" fill="none">
  <defs>
    <radialGradient id="bg3" cx="50%" cy="50%" r="50%">
      <stop offset="0%" stop-color="#eff6ff"/>
      <stop offset="100%" stop-color="#dbeafe"/>
    </radialGradient>
    <radialGradient id="vac" cx="45%" cy="40%" r="55%">
      <stop offset="0%" stop-color="#e0f2fe"/>
      <stop offset="100%" stop-color="#bae6fd"/>
    </radialGradient>
    <linearGradient id="mem2" x1="0" y1="0" x2="0" y2="1">
      <stop offset="0%" stop-color="#3b82f6"/>
      <stop offset="100%" stop-color="#1d4ed8"/>
    </linearGradient>
    <linearGradient id="bac2" x1="0" y1="0" x2="1" y2="1">
      <stop offset="0%" stop-color="#ef4444"/>
      <stop offset="100%" stop-color="#b91c1c"/>
    </linearGradient>
  </defs>
  <circle cx="250" cy="250" r="230" fill="url(#bg3)" opacity="0.5"/>
  <circle cx="260" cy="240" r="130" fill="url(#vac)" stroke="url(#mem2)" stroke-width="4"/>
  <rect x="220" y="215" width="70" height="35" rx="7" fill="url(#bac2)"/>
  <circle cx="220" cy="232" rx="10" ry="17" fill="#dc2626"/>
  <circle cx="290" cy="232" rx="10" ry="17" fill="#dc2626"/>
  <circle cx="240" cy="226" r="2.5" fill="#fca5a5" opacity="0.7"/>
  <circle cx="255" cy="232" r="3" fill="#fca5a5" opacity="0.7"/>
  <circle cx="270" cy="225" r="2" fill="#fca5a5" opacity="0.7"/>
  <circle cx="300" cy="180" r="30" fill="#93c5fd" opacity="0.4" stroke="#3b82f6" stroke-width="2.5"/>
  <text x="300" y="184" text-anchor="middle" font-family="system-ui,sans-serif" font-size="11" font-weight="700" fill="#1d4ed8">Rab5</text>
  <circle cx="350" cy="250" r="25" fill="#93c5fd" opacity="0.4" stroke="#3b82f6" stroke-width="2.5"/>
  <text x="350" y="254" text-anchor="middle" font-family="system-ui,sans-serif" font-size="11" font-weight="700" fill="#1d4ed8">EEA1</text>
  <circle cx="260" cy="340" r="28" fill="#93c5fd" opacity="0.4" stroke="#3b82f6" stroke-width="2.5"/>
  <text x="260" y="344" text-anchor="middle" font-family="system-ui,sans-serif" font-size="11" font-weight="700" fill="#1d4ed8">PI3P</text>
  <line x1="320" y1="195" x2="295" y2="215" stroke="#3b82f6" stroke-width="1.5" stroke-dasharray="4 3"/>
  <line x1="340" y1="265" x2="310" y2="255" stroke="#3b82f6" stroke-width="1.5" stroke-dasharray="4 3"/>
  <line x1="275" y1="320" x2="265" y2="290" stroke="#3b82f6" stroke-width="1.5" stroke-dasharray="4 3"/>
  <text x="260" y="440" text-anchor="middle" font-family="system-ui,sans-serif" font-size="18" font-weight="600" fill="#64748b">Early Phagosome (Rab5⁺)</text>
</svg>